<svg xmlns="http://www.w3.org/2000/svg" width="1920" height="1260" viewBox="0 0 1920 1260">
  <defs>
    <style>
      .cls-1 {
        fill-rule: evenodd;
      }
    </style>
  </defs>
  <path id="Color_Fill_1" data-name="Color Fill 1" class="cls-1" d="M0,0H1920V795c-42.23,1.242-77.93,5.99-120,0-9.35-1.331-9.53,3.306-14,5-11.39,4.318-33.19-.11-40-3v-1c4.38-10.219,11.76-19.138,15-31,14.32-52.377-23.56-92.045-60-101-37.14-9.127-59.29,14.784-85,17-0.67-1-1.33-2-2-3,0.46-22.158,3.64-45.128-6-58-112.74-24.739-271.86-11.006-398-11-50.63,0-138.43-7.222-172,11-2.86,10.422-2.8,30.116-1,42q0.495,30,1,60c4.54,27.8,9.42,55.574,14,81-0.33.333-.67,0.667-1,1-22.25.174-44.89,1.987-66,2-13.865.008-38.523-11.731-57-9l-136,7c-15.922-2.268-33.573-6.208-49-9-16.594-3-32.678,2.605-43,5-19.126,4.438-41.624,2.148-59,5-10.063,1.652-43.044-4.384-50-6H493l-43-6c-29.9,6.331-64.566,9.7-104,9l-25,1-9-5-29,2c-4.724-1.574-9.873-5.151-19-4-90.259,11.381-164.786,4-264,4C-0.009,534.577.373,258.788,0,0ZM1600,798c-0.16-36.523,13.29-30.521,23-49,10.63-20.219,8.9-37.97,27-50,32.54-21.623,71.12,1.02,83,25,5.28,10.662,3.27,31.308-1,41C1710.59,813.539,1662.67,799.3,1600,798Z"/>
</svg>
